<svg xmlns="http://www.w3.org/2000/svg" width="375" viewBox="0 0 375 375" height="375" version="1.0"><defs><clipPath id="a"><path d="M 94.742188 190.613281 L 115.742188 190.613281 L 115.742188 211.613281 L 94.742188 211.613281 Z M 94.742188 190.613281"/></clipPath><clipPath id="b"><path d="M 259.269531 190.613281 L 280.269531 190.613281 L 280.269531 211.613281 L 259.269531 211.613281 Z M 259.269531 190.613281"/></clipPath><clipPath id="c"><path d="M 138.5 142.601562 L 238 142.601562 L 238 232.601562 L 138.5 232.601562 Z M 138.5 142.601562"/></clipPath></defs><path fill="#EBA327" d="M 187.503906 72.378906 C 123.921875 72.378906 72.378906 123.921875 72.378906 187.503906 C 72.378906 251.085938 123.921875 302.628906 187.503906 302.628906 C 251.085938 302.628906 302.628906 251.085938 302.628906 187.503906 C 302.628906 123.921875 251.085938 72.378906 187.503906 72.378906"/><path fill="#F6F6E9" d="M 187.417969 80.917969 C 128.597656 80.917969 80.917969 128.597656 80.917969 187.417969 C 80.917969 246.234375 128.597656 293.917969 187.417969 293.917969 C 246.234375 293.917969 293.917969 246.234375 293.917969 187.417969 C 293.917969 128.597656 246.234375 80.917969 187.417969 80.917969"/><g clip-path="url(#a)"><path fill="#692900" d="M 115.746094 201.113281 C 106.28125 201.6875 105.816406 202.152344 105.242188 211.613281 C 104.671875 202.152344 104.207031 201.6875 94.742188 201.113281 C 104.207031 200.539062 104.671875 200.074219 105.242188 190.613281 C 105.816406 200.074219 106.28125 200.539062 115.746094 201.113281 Z M 115.746094 201.113281"/></g><g clip-path="url(#b)"><path fill="#692900" d="M 280.269531 201.113281 C 270.808594 201.6875 270.34375 202.152344 269.769531 211.613281 C 269.195312 202.152344 268.730469 201.6875 259.269531 201.113281 C 268.730469 200.539062 269.195312 200.074219 269.769531 190.613281 C 270.34375 200.074219 270.808594 200.539062 280.269531 201.113281 Z M 280.269531 201.113281"/></g><path fill="#F6F6E9" d="M 181.921875 159.640625 C 182.019531 159.015625 182.007812 158.375 181.820312 157.75 C 181.488281 156.632812 180.730469 155.671875 179.675781 155.257812 C 179.355469 155.132812 179.027344 155.085938 178.703125 155.085938 C 177.449219 154.402344 175.941406 154.699219 174.695312 155.457031 C 173.667969 155.859375 172.753906 156.59375 172.089844 157.574219 C 170.792969 159.492188 170.886719 162.132812 171.882812 164.167969 C 172.914062 166.277344 175.042969 167.6875 177.304688 166.953125 C 177.609375 166.851562 177.894531 166.722656 178.164062 166.574219 C 178.496094 166.628906 178.847656 166.539062 179.09375 166.253906 C 179.246094 166.078125 179.347656 165.855469 179.390625 165.621094 C 179.769531 165.222656 180.089844 164.761719 180.347656 164.257812 C 181.007812 163.597656 181.546875 162.8125 181.824219 161.882812 C 182.042969 161.148438 182.050781 160.386719 181.921875 159.640625"/><path fill="#F6F6E9" d="M 236.199219 217.761719 C 235.8125 219.09375 234.621094 220.007812 233.609375 220.800781 C 231.574219 222.402344 229.214844 223.496094 226.828125 224.367188 C 224.296875 225.296875 221.6875 226.011719 219.085938 226.664062 C 208.054688 229.4375 196.667969 230.460938 185.347656 230.238281 C 173.941406 230.015625 162.585938 228.554688 151.378906 226.386719 C 150.914062 226.296875 150.613281 225.8125 150.566406 225.332031 C 148.28125 224.679688 146.042969 223.789062 144.128906 222.339844 C 142.722656 221.273438 141.46875 219.875 140.941406 218.09375 C 140.378906 216.203125 140.980469 214.34375 142.085938 212.828125 C 144.152344 209.980469 146.894531 207.574219 149.734375 205.632812 C 152.617188 203.664062 155.800781 202.164062 159.113281 201.191406 C 159.753906 201.003906 160.222656 201.386719 160.410156 201.894531 C 160.660156 201.855469 160.90625 201.816406 161.160156 201.785156 C 164.011719 201.398438 166.886719 201.339844 169.757812 201.324219 C 172.769531 201.3125 175.777344 201.339844 178.785156 201.410156 C 184.753906 201.542969 190.71875 201.816406 196.679688 202.179688 C 202.460938 202.527344 208.246094 202.988281 213.964844 204 C 219.179688 204.925781 224.566406 206.207031 229.273438 208.839844 C 231.429688 210.042969 233.550781 211.632812 235.085938 213.660156 C 235.957031 214.8125 236.636719 216.265625 236.199219 217.761719"/><path fill="#FF5757" d="M 218.480469 211.160156 C 218.046875 212.535156 217.5 213.96875 216.5 214.996094 C 215.214844 216.320312 213.523438 216.398438 211.828125 216.539062 C 198.394531 217.644531 184.929688 216.726562 171.480469 216.839844 C 168.753906 216.863281 165.890625 216.976562 163.375 215.683594 C 160.816406 214.371094 159.632812 211.625 159.148438 208.808594 C 158.566406 205.398438 158.339844 201.875 158.234375 198.414062 C 158.125 194.839844 158.230469 191.257812 158.523438 187.695312 C 158.578125 187.054688 158.996094 186.511719 159.648438 186.511719 C 160.203125 186.511719 160.789062 187.035156 160.769531 187.648438 C 161.207031 187.878906 161.675781 188.039062 162.167969 188.109375 C 163.367188 188.289062 164.644531 188.007812 165.734375 187.484375 C 167.027344 186.859375 167.960938 185.941406 168.929688 184.878906 C 170.027344 183.683594 171.542969 182.648438 173.121094 183.535156 C 174.554688 184.335938 175.25 186.445312 175.761719 187.941406 C 176.832031 191.070312 177.203125 194.570312 179.089844 197.324219 C 180.449219 199.308594 183.457031 200.910156 185.488281 199.035156 C 186.371094 198.21875 186.867188 197.035156 187.351562 195.921875 C 187.890625 194.667969 188.40625 193.417969 189.21875 192.324219 C 189.640625 191.753906 190.15625 191.105469 190.847656 190.917969 C 191.753906 190.671875 192.53125 191.21875 193.003906 192.011719 C 193.390625 192.664062 193.644531 193.421875 193.976562 194.109375 C 194.335938 194.855469 194.726562 195.597656 195.183594 196.285156 C 195.96875 197.472656 197.019531 198.476562 198.355469 198.882812 C 199.542969 199.242188 200.796875 199.09375 201.675781 198.113281 C 202.589844 197.097656 203.007812 195.652344 203.671875 194.460938 C 204.460938 193.035156 205.816406 191.589844 207.527344 192.1875 C 208.96875 192.691406 209.667969 194.21875 210.242188 195.578125 C 210.816406 196.941406 211.464844 198.335938 212.453125 199.421875 C 213.292969 200.335938 214.308594 200.914062 215.476562 200.914062 C 216.472656 200.914062 217.390625 200.523438 217.855469 199.582031 C 218.285156 198.707031 219.71875 198.871094 219.90625 199.863281 C 220.632812 203.691406 219.609375 207.535156 218.480469 211.160156"/><path fill="#F6F6E9" d="M 219.988281 185.835938 C 219.945312 187.785156 219.859375 189.734375 219.71875 191.675781 C 219.597656 193.28125 219.402344 194.90625 218.820312 196.402344 C 218.210938 197.949219 217.203125 199.3125 215.710938 199.972656 C 214.097656 200.6875 212.390625 200.261719 211.324219 198.773438 C 210.316406 197.363281 209.898438 195.601562 209.234375 194.003906 C 208.726562 192.789062 207.960938 191.363281 206.675781 190.929688 C 205.546875 190.554688 204.363281 191.140625 203.574219 191.992188 C 202.53125 193.125 202.371094 194.796875 201.730469 196.164062 C 201.078125 197.550781 199.71875 198.722656 198.195312 198.671875 C 196.339844 198.617188 195.601562 196.875 195.160156 195.246094 C 194.777344 193.824219 194.484375 192.128906 193.507812 191.007812 C 192.933594 190.355469 192.0625 189.851562 191.25 190.011719 C 191.222656 190.027344 191.199219 190.046875 191.171875 190.058594 C 188.734375 191.15625 188.066406 194.332031 186.554688 196.386719 C 185.71875 197.527344 184.605469 198.449219 183.25 198.773438 C 181.890625 199.101562 180.464844 198.796875 179.460938 197.730469 C 178.601562 196.8125 178.195312 195.558594 177.796875 194.371094 C 177.316406 192.929688 176.863281 191.480469 176.445312 190.023438 C 176.039062 188.609375 175.671875 187.191406 175.316406 185.765625 C 175.082031 184.820312 174.835938 183.804688 174.285156 183 C 172.910156 181 170.691406 183.140625 169.449219 184.246094 C 168.402344 185.171875 167.316406 186.101562 166.15625 186.867188 C 165.140625 187.535156 163.929688 188.109375 162.710938 188.074219 C 161.453125 188.042969 160.351562 187.347656 159.707031 186.210938 C 159.085938 185.113281 158.933594 183.789062 158.773438 182.554688 C 158.386719 179.59375 158.242188 176.59375 158.449219 173.609375 C 158.542969 172.203125 158.761719 170.78125 159.472656 169.5625 C 160.109375 168.457031 161.023438 167.613281 162.003906 166.863281 C 164.246094 165.128906 166.675781 163.636719 169.011719 162.046875 C 169.785156 161.523438 170.519531 162.15625 170.640625 162.898438 C 170.765625 162.988281 170.871094 163.117188 170.945312 163.28125 C 172.089844 165.90625 175.109375 167.042969 177.648438 166.261719 C 180.507812 165.382812 182.445312 162.273438 182.816406 159.261719 C 182.925781 158.394531 183.691406 157.761719 184.503906 158.238281 L 187.046875 159.738281 C 190.375 161.707031 193.707031 163.664062 197.035156 165.628906 C 200.289062 167.546875 203.617188 169.367188 206.78125 171.441406 C 209.691406 173.347656 212.117188 175.890625 214.890625 177.984375 C 216.132812 178.921875 217.617188 179.605469 218.707031 180.746094 C 220.0625 182.152344 220.023438 183.964844 219.988281 185.835938"/><g clip-path="url(#c)"><path fill="#692900" d="M 234.953125 219.367188 C 234.265625 220.222656 233.109375 220.742188 232.191406 221.253906 C 227.902344 223.640625 223.1875 225.035156 218.476562 226.136719 C 213.472656 227.304688 208.414062 228.199219 203.324219 228.8125 C 193.007812 230.058594 182.574219 230.199219 172.230469 229.226562 C 167.257812 228.757812 162.273438 228.078125 157.382812 227.007812 C 152.921875 226.035156 148.476562 224.609375 144.660156 221.90625 C 143.148438 220.835938 141.292969 219.363281 141.101562 217.28125 C 140.90625 215.117188 142.40625 213.214844 143.804688 211.828125 C 145.464844 210.179688 147.40625 208.804688 149.34375 207.550781 C 151.332031 206.261719 153.414062 205.121094 155.566406 204.167969 C 156.238281 203.871094 156.917969 203.601562 157.601562 203.339844 C 157.75 204.847656 157.914062 206.355469 158.101562 207.855469 C 158.324219 209.605469 158.632812 211.398438 159.511719 212.933594 C 160.421875 214.511719 161.835938 215.519531 163.441406 216.179688 C 165.058594 216.839844 166.816406 217.121094 168.527344 217.367188 C 168.78125 217.402344 169.035156 217.433594 169.289062 217.464844 C 168.933594 218.003906 168.699219 218.632812 168.636719 219.320312 C 168.5 220.933594 169.40625 222.476562 170.773438 223.164062 C 172.222656 223.898438 173.929688 224.097656 175.503906 224.316406 C 177.203125 224.546875 178.917969 224.652344 180.628906 224.695312 C 183.980469 224.78125 187.351562 224.761719 190.703125 224.65625 C 194.070312 224.546875 197.449219 224.261719 200.757812 223.542969 C 202.375 223.191406 204.226562 222.851562 205.460938 221.59375 C 206.304688 220.738281 206.679688 219.453125 206.429688 218.304688 C 207.855469 218.320312 209.28125 218.335938 210.707031 218.355469 C 212.542969 218.375 214.402344 218.335938 216.039062 217.34375 C 217.390625 216.519531 218.476562 215.210938 219.203125 213.765625 C 220.371094 211.433594 220.722656 208.746094 220.871094 206.074219 C 224.894531 207.007812 228.675781 208.992188 231.75 211.898438 C 233.238281 213.304688 234.828125 214.953125 235.328125 217.066406 C 235.515625 217.867188 235.472656 218.71875 234.953125 219.367188 Z M 201.007812 215.871094 C 193.289062 215.777344 185.570312 215.703125 177.851562 215.59375 C 174.109375 215.539062 170.335938 215.429688 166.652344 214.65625 C 165.238281 214.359375 163.75 213.972656 162.570312 213.046875 C 161.417969 212.136719 160.890625 210.722656 160.589844 209.285156 C 160.21875 207.5 160.078125 205.65625 159.894531 203.84375 C 159.695312 201.832031 159.527344 199.8125 159.398438 197.796875 C 159.1875 194.511719 159.070312 191.222656 159.046875 187.933594 C 159.714844 188.65625 160.542969 189.214844 161.519531 189.558594 C 163.207031 190.152344 165.140625 189.992188 166.707031 189.113281 C 167.621094 188.597656 168.3125 187.808594 168.933594 186.953125 C 169.515625 186.148438 170.027344 185.226562 170.804688 184.609375 C 171.410156 184.125 172.132812 183.910156 172.769531 184.339844 C 173.378906 184.75 173.78125 185.515625 174.050781 186.214844 C 174.894531 188.417969 175.007812 190.902344 175.613281 193.183594 C 176.175781 195.285156 177.109375 197.425781 178.699219 198.882812 C 180.242188 200.296875 182.3125 200.980469 184.332031 200.5 C 186.46875 199.992188 187.628906 198.121094 188.339844 196.085938 C 188.660156 195.179688 188.886719 194.230469 189.347656 193.390625 C 189.707031 192.734375 190.257812 191.953125 191.003906 191.78125 C 192.574219 191.417969 193.210938 193.832031 193.507812 195.015625 C 194.023438 197.066406 194.710938 199.253906 196.746094 200.101562 C 198.757812 200.9375 201.042969 199.976562 202.445312 198.375 C 203.167969 197.550781 203.730469 196.578125 204.195312 195.566406 C 204.570312 194.753906 204.894531 193.882812 205.417969 193.160156 C 205.621094 192.878906 205.863281 192.597656 206.15625 192.445312 C 206.363281 192.335938 206.589844 192.292969 206.878906 192.429688 C 206.984375 192.476562 207.21875 192.726562 207.328125 192.890625 C 207.53125 193.203125 207.679688 193.550781 207.800781 193.90625 C 208.113281 194.828125 208.304688 195.789062 208.652344 196.703125 C 209.058594 197.761719 209.570312 198.738281 210.273438 199.613281 C 211.660156 201.34375 213.859375 202.308594 215.996094 201.859375 C 217.226562 201.601562 218.164062 200.835938 218.855469 199.84375 C 218.8125 201.414062 218.753906 202.984375 218.671875 204.550781 C 218.574219 206.398438 218.503906 208.265625 218.105469 210.074219 C 217.773438 211.574219 217.207031 213.042969 216.203125 214.1875 C 215.199219 215.328125 213.960938 215.886719 212.492188 215.972656 C 210.605469 216.078125 208.695312 215.960938 206.804688 215.941406 C 204.875 215.917969 202.941406 215.894531 201.007812 215.871094 Z M 204.148438 218.601562 C 204.707031 219.230469 203.75 220.09375 203.238281 220.363281 C 202.15625 220.9375 200.816406 221.128906 199.636719 221.367188 C 196.902344 221.921875 194.125 222.15625 191.34375 222.265625 C 188.5625 222.371094 185.773438 222.367188 182.992188 222.359375 C 180.207031 222.351562 177.394531 222.292969 174.640625 221.804688 C 173.914062 221.675781 173.175781 221.535156 172.464844 221.320312 C 171.96875 221.171875 171.445312 220.972656 171.132812 220.511719 C 170.542969 219.628906 170.996094 218.476562 171.941406 218.183594 C 172.203125 218.101562 172.390625 217.957031 172.519531 217.773438 C 173.171875 217.816406 173.820312 217.851562 174.46875 217.878906 C 178.445312 218.03125 182.429688 218.015625 186.40625 218.0625 C 190.453125 218.113281 194.503906 218.160156 198.554688 218.207031 C 200.351562 218.230469 202.144531 218.25 203.9375 218.273438 C 203.988281 218.386719 204.054688 218.496094 204.148438 218.601562 Z M 159.253906 174.574219 C 159.328125 173.953125 159.421875 173.339844 159.53125 172.722656 C 161.519531 173.554688 163.648438 174.101562 165.722656 174.640625 C 169.953125 175.742188 174.230469 176.625 178.429688 177.859375 C 182.707031 179.117188 186.929688 180.574219 191.183594 181.90625 C 199.789062 184.601562 208.570312 186.390625 217.550781 186.789062 C 217.929688 186.808594 218.355469 186.820312 218.785156 186.800781 C 218.835938 188.011719 218.867188 189.21875 218.894531 190.429688 C 218.765625 191.558594 218.613281 192.679688 218.429688 193.796875 C 218.152344 195.511719 217.941406 197.902344 216.53125 199.0625 C 215.167969 200.183594 213.238281 199.460938 212.148438 198.28125 C 210.855469 196.878906 210.566406 195.039062 209.960938 193.277344 C 209.367188 191.539062 208.203125 189.78125 206.226562 190.003906 C 204.304688 190.226562 203.226562 192.175781 202.492188 193.851562 C 201.75 195.53125 200.800781 197.480469 198.945312 197.957031 C 198.226562 198.140625 197.449219 198.023438 196.910156 197.457031 C 196.347656 196.863281 196.101562 196.011719 195.886719 195.222656 C 195.390625 193.398438 194.96875 191.425781 193.464844 190.195312 C 191.816406 188.84375 189.664062 189.339844 188.3125 190.902344 C 186.96875 192.453125 186.710938 194.429688 185.863281 196.25 C 185.523438 196.984375 185.066406 197.675781 184.335938 198.019531 C 183.648438 198.347656 182.832031 198.363281 182.109375 198.179688 C 178.007812 197.136719 177.546875 191.417969 176.816406 187.882812 C 176.425781 185.992188 175.855469 183.914062 174.363281 182.648438 C 172.625 181.179688 170.445312 181.683594 168.910156 183.21875 C 167.625 184.503906 166.925781 186.566406 165.191406 187.25 C 163.855469 187.78125 162.292969 187.605469 161.105469 186.734375 C 159.664062 185.675781 159.257812 183.625 159.109375 181.890625 C 158.902344 179.460938 158.964844 176.992188 159.253906 174.574219 Z M 160.289062 170.039062 C 160.535156 169.691406 160.878906 169.417969 161.199219 169.152344 C 161.984375 168.496094 162.773438 167.851562 163.570312 167.214844 C 165.175781 165.933594 166.808594 164.6875 168.460938 163.480469 C 168.933594 163.136719 169.414062 162.804688 169.886719 162.464844 C 170.269531 163.925781 171.039062 165.277344 172.140625 166.261719 C 173.292969 167.292969 174.71875 167.917969 176.234375 168 C 177.796875 168.089844 179.210938 167.453125 180.402344 166.417969 C 182.398438 164.675781 183.707031 162.015625 183.601562 159.292969 C 190.507812 162.714844 197.210938 166.582031 203.65625 170.886719 C 206.953125 173.085938 210.238281 175.355469 213.332031 177.863281 C 214.789062 179.042969 216.191406 180.304688 217.484375 181.683594 C 218.148438 182.390625 218.808594 183.121094 219.386719 183.910156 C 219.433594 183.972656 219.542969 184.199219 219.613281 184.304688 C 219.605469 184.308594 219.601562 184.3125 219.59375 184.316406 C 219.578125 184.324219 219.324219 184.402344 219.214844 184.425781 C 218.460938 184.570312 217.488281 184.421875 216.683594 184.378906 C 215.664062 184.324219 214.648438 184.253906 213.636719 184.164062 C 211.5625 183.984375 209.496094 183.738281 207.4375 183.417969 C 203.3125 182.769531 199.234375 181.832031 195.214844 180.664062 C 191.210938 179.5 187.261719 178.152344 183.289062 176.886719 C 179.328125 175.625 175.34375 174.523438 171.3125 173.570312 C 169.332031 173.105469 167.351562 172.644531 165.386719 172.109375 C 164.390625 171.839844 163.394531 171.554688 162.410156 171.238281 C 161.933594 171.085938 161.460938 170.925781 160.988281 170.761719 C 160.703125 170.660156 160.398438 170.492188 160.109375 170.40625 C 160.171875 170.3125 160.230469 170.121094 160.289062 170.039062 Z M 171.910156 159.542969 C 172.105469 158.375 172.671875 157.3125 173.484375 156.496094 C 173.996094 155.980469 174.679688 155.488281 175.390625 155.351562 C 175.433594 155.386719 175.476562 155.421875 175.519531 155.457031 C 175.910156 156.664062 176.160156 157.921875 176.253906 159.203125 C 176.296875 159.839844 176.734375 160.386719 177.375 160.386719 C 177.945312 160.386719 178.542969 159.84375 178.496094 159.203125 C 178.402344 157.871094 178.167969 156.574219 177.808594 155.332031 C 179.203125 155.355469 180.484375 156.296875 181.046875 157.761719 C 181.847656 159.859375 181.125 162.203125 179.734375 163.820312 C 179.011719 164.660156 178.132812 165.433594 177.035156 165.605469 C 176.054688 165.761719 175.035156 165.472656 174.199219 164.933594 C 172.515625 163.851562 171.570312 161.585938 171.910156 159.542969 Z M 235.683594 212.804688 C 234.265625 210.894531 232.421875 209.273438 230.53125 207.910156 C 228.597656 206.515625 226.472656 205.414062 224.261719 204.609375 C 223.183594 204.21875 222.085938 203.914062 220.972656 203.679688 C 220.988281 203.183594 221.003906 202.6875 221.023438 202.203125 C 221.183594 198.296875 221.214844 194.390625 221.136719 190.480469 C 221.148438 190.386719 221.160156 190.292969 221.167969 190.199219 C 221.3125 188.886719 221.421875 187.574219 221.5 186.257812 C 221.511719 186.074219 221.484375 185.910156 221.4375 185.773438 C 221.644531 185.503906 221.792969 185.171875 221.863281 184.757812 C 222.070312 183.542969 221.289062 182.617188 220.597656 181.757812 C 219.960938 180.96875 219.285156 180.21875 218.582031 179.5 C 215.628906 176.484375 212.207031 174.007812 208.800781 171.597656 C 201.707031 166.582031 194.28125 162.09375 186.59375 158.171875 C 185.65625 157.695312 184.714844 157.226562 183.769531 156.765625 C 183.527344 156.644531 183.261719 156.605469 183.011719 156.644531 C 181.9375 154.234375 179.472656 152.5625 176.964844 153 C 175.03125 148.585938 171.445312 145.082031 166.910156 143.515625 C 165.089844 142.890625 163.15625 142.601562 161.246094 142.65625 C 159.808594 142.699219 159.800781 145.066406 161.246094 145.023438 C 165.023438 144.914062 168.804688 146.332031 171.589844 149.050781 C 172.789062 150.222656 173.792969 151.609375 174.5625 153.128906 C 173.855469 153.351562 173.183594 153.742188 172.621094 154.1875 C 171.457031 155.109375 170.589844 156.328125 170.066406 157.757812 C 169.828125 158.410156 169.691406 159.09375 169.640625 159.789062 C 166.097656 162.265625 162.5625 164.863281 159.300781 167.742188 C 158.640625 168.324219 158.019531 169.140625 157.871094 170.058594 C 157.789062 170.175781 157.722656 170.320312 157.6875 170.492188 C 157.128906 173.042969 156.808594 175.660156 156.757812 178.277344 C 156.734375 179.589844 156.734375 180.980469 156.878906 182.339844 C 156.855469 182.429688 156.839844 182.527344 156.835938 182.632812 C 156.703125 188.726562 156.875 194.839844 157.378906 200.917969 C 152.882812 202.597656 148.617188 204.945312 144.785156 207.953125 C 142.863281 209.460938 140.921875 211.128906 139.761719 213.390625 C 138.613281 215.621094 138.511719 218.246094 139.878906 220.398438 C 141.1875 222.460938 143.296875 223.917969 145.316406 225.105469 C 147.488281 226.378906 149.824219 227.339844 152.199219 228.089844 C 157.167969 229.652344 162.378906 230.417969 167.511719 231.070312 C 178.394531 232.457031 189.414062 232.601562 200.324219 231.511719 C 205.824219 230.964844 211.300781 230.109375 216.714844 228.949219 C 221.835938 227.847656 226.941406 226.492188 231.695312 224.152344 C 232.84375 223.585938 233.976562 222.96875 235.054688 222.265625 C 236.101562 221.585938 236.984375 220.742188 237.417969 219.5 C 238.238281 217.171875 237.027344 214.613281 235.683594 212.804688"/></g><g fill="#692900"><g><g><path d="M 0.828125 -5.367188 C 1.40625 -9.125 -0.183594 -10.761719 -2.117188 -11.027344 C -5.0625 -11.414062 -9.320312 -9.164062 -9.605469 -9.402344 C -9.640625 -9.40625 -9.632812 -9.4375 -9.628906 -9.46875 C -9.59375 -9.691406 -8.277344 -10.261719 -7.921875 -12.566406 C -7.382812 -16.074219 -9.175781 -18.289062 -12.582031 -19.039062 C -19.269531 -20.554688 -21.949219 -16.378906 -22.445312 -13.15625 C -22.84375 -10.566406 -22.402344 -10.078125 -22.46875 -9.636719 C -22.503906 -9.414062 -23.167969 -8.453125 -23.304688 -7.566406 C -23.832031 -4.15625 -17.910156 -4.183594 -16.28125 -4.058594 C -14.621094 -3.933594 -12.78125 -3.910156 -11.203125 -3.441406 C -8.949219 -2.769531 -6.425781 -1.3125 -4.246094 -0.976562 C -2.445312 -0.699219 0.09375 -0.601562 0.828125 -5.367188 Z M -19.191406 -12.65625 C -19.1875 -12.6875 -19.183594 -12.71875 -19.175781 -12.75 C -18.914062 -14.457031 -14.007812 -15.25 -13.863281 -12.835938 C -13.84375 -12.738281 -13.859375 -12.640625 -13.871094 -12.578125 C -14.167969 -10.652344 -19.277344 -11.050781 -19.191406 -12.65625 Z M -19.191406 -12.65625" transform="translate(118.132 182.056)"/></g></g></g><g fill="#692900"><g><g><path d="M 1.0625 -2.359375 L 3.058594 -6.785156 C 4.75 -10.542969 -6.113281 -11.550781 -6.292969 -11.773438 C -6.582031 -12.148438 -6.429688 -12.953125 -6.125 -13.625 C -5.835938 -14.265625 -5.429688 -14.78125 -5.070312 -14.726562 C -4.550781 -14.632812 4.070312 -9.03125 5.328125 -11.828125 L 7.207031 -15.992188 C 7.863281 -17.449219 6.222656 -18.710938 4.726562 -19.351562 C 2.050781 -20.488281 -3.421875 -19.625 -6.769531 -19.976562 C -9.882812 -20.292969 -12.945312 -21.042969 -16.070312 -20.558594 C -16.898438 -20.441406 -17.640625 -19.722656 -18.019531 -18.878906 C -18.269531 -18.324219 -18.359375 -17.734375 -18.269531 -17.238281 C -17.804688 -14.539062 -13.410156 -11.300781 -12.699219 -10.699219 C -11.234375 -9.441406 -9.84375 -8.328125 -8.433594 -7.023438 C -6.679688 -5.394531 -5.125 -3.324219 -3.136719 -1.902344 C -2.136719 -1.171875 0.0507812 -0.117188 1.0625 -2.359375 Z M -14.582031 -17.257812 C -14.265625 -18.34375 -10.25 -17.304688 -9.378906 -16.667969 C -8.910156 -16.316406 -8.945312 -15.457031 -9.246094 -14.785156 C -9.511719 -14.203125 -9.992188 -13.753906 -10.480469 -13.835938 C -11.546875 -14.035156 -14.972656 -16 -14.582031 -17.257812 Z M -14.582031 -17.257812" transform="translate(120.63 164.803)"/></g></g></g><g fill="#692900"><g><g><path d="M -2.546875 -3.734375 C -0.0625 -3.375 3.371094 -4.054688 5.699219 -6.855469 L 6.496094 -7.8125 C 8.515625 -10.246094 9.074219 -14.269531 5.820312 -17.097656 C 1.011719 -21.261719 -6.664062 -15.925781 -9.230469 -17.1875 C -10.324219 -17.71875 -10.484375 -18.726562 -9.648438 -19.734375 C -9.566406 -19.832031 -9.4375 -19.933594 -9.355469 -20.03125 C -8.710938 -20.660156 -7.605469 -21.441406 -6.910156 -22.277344 C -6.359375 -22.941406 -6.082031 -23.625 -6.488281 -24.335938 C -7.355469 -25.890625 -9.921875 -25.902344 -12.371094 -22.953125 C -15.558594 -19.121094 -15.65625 -15.503906 -12.683594 -13.035156 C -9.070312 -10.03125 -1.691406 -14.160156 -1.488281 -11.957031 C -1.480469 -11.867188 -1.492188 -11.75 -1.554688 -11.675781 C -2.085938 -11.039062 -4.894531 -11.503906 -6.203125 -9.933594 C -6.242188 -9.882812 -6.304688 -9.808594 -6.367188 -9.734375 C -8.101562 -7.148438 -5.949219 -4.238281 -2.546875 -3.734375 Z M -2.546875 -3.734375" transform="translate(129.044 146.619)"/></g></g></g><g fill="#692900"><g><g><path d="M -9.621094 -16.046875 C -9.410156 -16.078125 -9.234375 -16.160156 -9.050781 -16.289062 C -8.320312 -16.804688 -7.730469 -17.964844 -6.945312 -18.515625 C -6.03125 -19.160156 -4.886719 -19.03125 -2.949219 -16.449219 C -1.984375 -15.132812 -0.230469 -10.703125 1.308594 -6.355469 C 2.035156 -4.324219 4.074219 -2.871094 6.503906 -4.582031 L 9.0625 -6.382812 C 12.328125 -8.683594 11.082031 -11.011719 10.128906 -11.863281 C 7.152344 -14.535156 2.585938 -15.695312 0.511719 -19.46875 C -0.828125 -21.925781 -0.675781 -22.816406 0.109375 -23.367188 C 0.789062 -23.847656 1.953125 -24.082031 2.996094 -24.816406 C 4.886719 -26.1875 2.753906 -29.765625 0.199219 -29.175781 C -0.832031 -28.921875 -1.867188 -28.230469 -3.460938 -27.105469 C -3.878906 -26.8125 -4.347656 -26.480469 -4.84375 -26.132812 C -5.550781 -25.636719 -6.472656 -24.945312 -7.386719 -24.300781 C -8.117188 -23.789062 -8.71875 -23.363281 -9.214844 -23.015625 C -10.546875 -22.074219 -11.105469 -21.644531 -11.714844 -20.902344 C -13.371094 -18.875 -11.378906 -15.707031 -9.621094 -16.046875 Z M -9.621094 -16.046875" transform="translate(140.092 133.186)"/></g></g></g><g fill="#692900"><g><g><path d="M 0.15625 -4.363281 C 1.878906 -2.523438 4.660156 -1.765625 6.183594 -2.34375 L 8.960938 -3.398438 C 15.59375 -5.914062 11.546875 -15.417969 7.003906 -13.695312 C 6.914062 -13.660156 6.796875 -13.613281 6.707031 -13.582031 C 6.539062 -13.484375 6.359375 -13.414062 6.210938 -13.359375 C 4.359375 -12.65625 2.898438 -13.261719 2.34375 -14.726562 C 1.480469 -16.996094 7.746094 -16.332031 6.523438 -19.558594 C 5.300781 -22.785156 0.539062 -19.304688 0.0976562 -20.640625 C -0.0273438 -20.972656 0.371094 -21.1875 0.9375 -21.40625 C 1.566406 -21.640625 2.375 -21.847656 3.121094 -22.128906 C 4.136719 -22.515625 4.964844 -23.035156 4.890625 -23.859375 C 4.742188 -25.785156 2.027344 -26.636719 -0.988281 -25.492188 C -1.644531 -25.242188 -1.347656 -25.355469 -2.003906 -25.105469 C -3.796875 -24.425781 -5.164062 -22.269531 -5.371094 -20.378906 C -5.886719 -15.707031 -3.652344 -8.457031 0.15625 -4.363281 Z M 0.15625 -4.363281" transform="translate(155.912 122.358)"/></g></g></g><g fill="#692900"><g><g><path d="M 1.277344 -1.152344 C 1.785156 -0.667969 2.855469 -0.347656 4.1875 -0.507812 C 6.28125 -0.765625 9.070312 -1.105469 11.226562 -1.367188 C 12.304688 -1.496094 13.226562 -1.609375 13.796875 -1.679688 C 13.828125 -1.683594 13.859375 -1.6875 13.890625 -1.691406 C 16.554688 -2.015625 17.101562 -5.71875 16.050781 -8.003906 C 15.214844 -9.867188 13.867188 -10.347656 12.28125 -10.152344 C 11.046875 -10.003906 9.632812 -9.445312 8.199219 -8.785156 C 8.078125 -8.738281 7.921875 -8.6875 7.828125 -8.675781 C 5.890625 -8.441406 4.9375 -13.378906 4.691406 -16.179688 C 4.460938 -18.632812 4.988281 -24.328125 2.328125 -24.519531 C 2.03125 -24.546875 1.777344 -24.546875 1.554688 -24.523438 C 0.886719 -24.441406 0.441406 -24.128906 0.132812 -23.769531 C -1.496094 -21.800781 0.496094 -17.34375 0.714844 -15.019531 C 1.0625 -11.363281 -2.050781 -4.160156 1.277344 -1.152344 Z M 1.277344 -1.152344" transform="translate(170.486 116.731)"/></g></g></g><g fill="#692900"><g><g><path d="M 2.164062 -3.792969 C 2.835938 -1.363281 4.949219 0.597656 6.566406 0.792969 L 9.515625 1.148438 C 16.558594 2 17.382812 -8.292969 12.5625 -8.875 C 12.464844 -8.886719 12.339844 -8.902344 12.246094 -8.914062 C 12.050781 -8.90625 11.859375 -8.929688 11.703125 -8.949219 C 9.734375 -9.1875 8.722656 -10.402344 8.910156 -11.957031 C 9.203125 -14.367188 14.445312 -10.871094 14.859375 -14.296875 C 15.273438 -17.722656 9.4375 -16.847656 9.671875 -18.238281 C 9.710938 -18.585938 10.164062 -18.597656 10.765625 -18.523438 C 11.433594 -18.441406 12.246094 -18.246094 13.039062 -18.152344 C 14.117188 -18.023438 15.09375 -18.097656 15.410156 -18.863281 C 16.171875 -20.636719 14.160156 -22.652344 10.957031 -23.039062 C 10.261719 -23.121094 10.578125 -23.082031 9.878906 -23.167969 C 7.976562 -23.398438 5.761719 -22.121094 4.703125 -20.542969 C 2.074219 -16.644531 0.691406 -9.183594 2.164062 -3.792969 Z M 2.164062 -3.792969" transform="translate(188.14 114.75)"/></g></g></g><g fill="#692900"><g><g><path d="M 2.695312 -3.628906 C 3.167969 -1.164062 4.933594 1.855469 8.34375 3.136719 L 9.507812 3.578125 C 12.46875 4.691406 16.453125 3.902344 18.0625 -0.101562 C 20.417969 -6.007812 12.863281 -11.511719 13.214844 -14.351562 C 13.359375 -15.558594 14.257812 -16.039062 15.484375 -15.578125 C 15.605469 -15.535156 15.742188 -15.449219 15.863281 -15.402344 C 16.667969 -14.996094 17.769531 -14.207031 18.785156 -13.824219 C 19.59375 -13.523438 20.328125 -13.484375 20.867188 -14.101562 C 22.050781 -15.429688 21.222656 -17.859375 17.636719 -19.207031 C 12.96875 -20.960938 9.519531 -19.871094 8.160156 -16.25 C 6.507812 -11.855469 12.824219 -6.234375 10.808594 -5.320312 C 10.726562 -5.285156 10.613281 -5.257812 10.523438 -5.292969 C 9.746094 -5.585938 9.265625 -8.394531 7.351562 -9.113281 C 7.292969 -9.136719 7.203125 -9.167969 7.113281 -9.203125 C 4.101562 -9.996094 2.054688 -7.007812 2.695312 -3.628906 Z M 2.695312 -3.628906" transform="translate(203.666 116.55)"/></g></g></g><g fill="#692900"><g><g><path d="M 6.398438 5.734375 C 8.78125 7.867188 11.433594 7.972656 13.394531 6.644531 C 15.882812 4.96875 17.257812 2.382812 14.261719 -0.691406 C 11.839844 -3.160156 11.320312 -4.828125 13.101562 -7.007812 C 15.265625 -9.660156 18.558594 -9.839844 20.605469 -8.003906 C 20.84375 -7.792969 21.058594 -7.554688 21.253906 -7.292969 C 21.375 -7.144531 21.496094 -6.992188 21.640625 -6.863281 C 22.328125 -6.246094 23.289062 -6.070312 24.464844 -6.949219 C 26.136719 -8.195312 25.136719 -9.949219 24.304688 -10.695312 C 18.546875 -15.855469 11.230469 -11.859375 8.296875 -8.78125 C 6.136719 -6.511719 0.429688 0.382812 6.398438 5.734375 Z M 6.398438 5.734375" transform="translate(227.854 127.756)"/></g></g></g><g fill="#692900"><g><g><path d="M 10.117188 -6.660156 C 5.367188 -3.308594 1.917969 2.753906 4.492188 6.449219 C 8 11.484375 15.128906 9.589844 20.097656 5.429688 C 24.394531 1.8125 27.058594 -3.46875 24.339844 -7.375 C 21.707031 -11.152344 16.3125 -11.015625 10.117188 -6.660156 Z M 21.113281 -5.128906 C 22.464844 -3.1875 15.847656 3.132812 13.949219 0.40625 C 11.796875 -2.6875 19.742188 -7.09375 21.113281 -5.128906 Z M 21.113281 -5.128906" transform="translate(239.287 137.95)"/></g></g></g><g fill="#692900"><g><g><path d="M 1.292969 3.234375 C 1.570312 3.949219 1.742188 4.394531 1.992188 5.121094 C 2.035156 5.242188 2.082031 5.359375 2.128906 5.480469 C 2.929688 7.535156 3.902344 9.246094 5.847656 10.546875 C 8.722656 12.480469 13.28125 11.773438 17.121094 10.003906 C 23.746094 6.949219 26.398438 1.773438 25.414062 -1.375 C 25.378906 -1.464844 25.332031 -1.585938 25.296875 -1.675781 C 24.972656 -2.507812 24.476562 -3.171875 24.058594 -3.625 C 24.148438 -3.832031 24.175781 -4.5625 23.910156 -5.246094 C 23.828125 -5.457031 23.707031 -5.683594 23.554688 -5.898438 C 21.800781 -8.199219 17.417969 -4.746094 15.253906 -3.527344 C 8.84375 0.09375 6.410156 -0.878906 5.421875 -1.042969 C 3.808594 -1.308594 -0.125 -0.671875 1.292969 3.234375 Z M 20.953125 0.734375 C 21.386719 1.9375 19.683594 3.285156 17.730469 4.078125 C 15.804688 4.859375 13.667969 5.175781 13.277344 4.265625 C 12.511719 2.472656 20.25 -1.253906 20.953125 0.734375 Z M 20.953125 0.734375" transform="translate(248.765 151.672)"/></g></g></g><g fill="#692900"><g><g><path d="M 4.222656 1.117188 C 2.046875 2.390625 0.695312 4.933594 0.921875 6.550781 L 1.335938 9.492188 C 2.324219 16.515625 12.488281 14.664062 11.808594 9.855469 C 11.796875 9.761719 11.777344 9.632812 11.765625 9.539062 C 11.707031 9.355469 11.679688 9.164062 11.65625 9.003906 C 11.382812 7.042969 12.296875 5.753906 13.847656 5.535156 C 16.25 5.195312 14.21875 11.160156 17.636719 10.679688 C 21.054688 10.199219 18.710938 4.785156 20.113281 4.652344 C 20.460938 4.605469 20.585938 5.039062 20.667969 5.640625 C 20.761719 6.304688 20.785156 7.140625 20.894531 7.929688 C 21.046875 9.007812 21.371094 9.929688 22.191406 10.039062 C 24.105469 10.316406 25.53125 7.859375 25.082031 4.664062 C 24.984375 3.964844 25.027344 4.28125 24.929688 3.585938 C 24.664062 1.6875 22.859375 -0.121094 21.0625 -0.738281 C 16.617188 -2.277344 9.054688 -1.695312 4.222656 1.117188 Z M 4.222656 1.117188" transform="translate(254.577 166.83)"/></g></g></g><g fill="#7B3911"><g><g><path d="M 12.199219 3.921875 C 9.652344 5.058594 6.113281 1.613281 8.425781 -1.921875 C 9.921875 -4.191406 12.113281 -5.335938 13.25 -4.53125 C 14.328125 -3.765625 14.140625 -2.511719 11.308594 -1.292969 C 8.601562 -0.140625 11.757812 2.5 13.808594 2.371094 C 16.6875 2.160156 16.769531 -1.800781 14.914062 -4.121094 C 12.816406 -6.742188 9.085938 -7.269531 6.605469 -5.285156 C 4.109375 -3.289062 3.804688 0.472656 5.902344 3.09375 C 7.542969 5.144531 10.453125 5.839844 12.554688 4.507812 C 12.96875 4.265625 12.746094 3.65625 12.199219 3.921875 Z M 12.199219 3.921875" transform="translate(116.084 248.897)"/></g></g></g><g fill="#7B3911"><g><g><path d="M 13.535156 -7.496094 C 10.882812 -9.554688 7.128906 -9.195312 5.183594 -6.683594 C 3.226562 -4.15625 3.808594 -0.433594 6.460938 1.625 C 9.132812 3.695312 12.882812 3.335938 14.84375 0.808594 C 16.789062 -1.703125 16.207031 -5.425781 13.535156 -7.496094 Z M 6.988281 0.941406 C 5.949219 0.136719 6.4375 -2.269531 8.105469 -4.417969 C 9.761719 -6.550781 11.96875 -7.621094 13.007812 -6.816406 C 14.066406 -5.996094 13.578125 -3.589844 11.921875 -1.457031 C 10.253906 0.691406 8.046875 1.761719 6.988281 0.941406 Z M 6.988281 0.941406" transform="translate(129.326 263.968)"/></g></g></g><g fill="#7B3911"><g><g><path d="M 15.441406 -8.101562 C 15.746094 -8.164062 15.773438 -8.449219 15.546875 -8.554688 L 13.441406 -9.511719 C 13.214844 -9.613281 13.039062 -9.394531 13.171875 -9.136719 C 13.628906 -8.28125 13.792969 -8.253906 13.445312 -7.492188 L 10.1875 -0.328125 L 10.027344 -9.34375 C 9.980469 -10.558594 9.558594 -11.273438 8.402344 -11.800781 L 6.089844 -12.851562 C 5.882812 -12.945312 5.6875 -12.734375 5.820312 -12.476562 C 6.300781 -11.609375 6.441406 -11.597656 6.09375 -10.832031 L 2.847656 -3.6875 C 2.5 -2.925781 2.394531 -3.023438 1.429688 -2.8125 C 1.148438 -2.742188 1.109375 -2.4375 1.3125 -2.34375 L 3.441406 -1.375 C 3.648438 -1.28125 3.851562 -1.511719 3.699219 -1.78125 C 3.242188 -2.636719 3.078125 -2.660156 3.425781 -3.425781 L 6.683594 -10.589844 L 6.84375 -1.574219 C 6.886719 -0.355469 7.320312 0.386719 8.457031 0.90625 L 10.769531 1.957031 C 10.996094 2.058594 11.203125 1.828125 11.050781 1.558594 C 10.59375 0.703125 10.429688 0.679688 10.777344 -0.0859375 L 14.023438 -7.226562 C 14.371094 -7.992188 14.496094 -7.886719 15.441406 -8.101562 Z M 15.441406 -8.101562" transform="translate(146.374 275.884)"/></g></g></g><g fill="#7B3911"><g><g><path d="M 12.039062 -2.386719 C 11.125 -3.039062 11.089844 -3.539062 10.894531 -4.394531 C 10.855469 -4.488281 9.246094 -11.316406 9.230469 -11.410156 C 9.011719 -12.265625 8.21875 -13.722656 6.816406 -13.8125 L 4.621094 -13.953125 C 4.371094 -13.96875 4.195312 -13.707031 4.363281 -13.515625 C 4.914062 -12.890625 4.800781 -12.167969 4.5 -11.347656 L 2.066406 -4.9375 C 1.636719 -3.917969 1.0625 -3.476562 0.359375 -3.136719 C 0.0546875 -2.972656 0.195312 -2.667969 0.417969 -2.65625 L 3.835938 -2.4375 C 4.0625 -2.421875 4.171875 -2.710938 4.003906 -2.902344 C 2.730469 -4.300781 2.960938 -5.425781 3.183594 -6.046875 L 7.121094 -5.792969 C 7.238281 -4.421875 7.183594 -3.246094 6.742188 -2.726562 C 6.59375 -2.53125 6.710938 -2.253906 6.9375 -2.238281 L 11.964844 -1.917969 C 12.1875 -1.902344 12.320312 -2.1875 12.039062 -2.386719 Z M 3.425781 -6.667969 L 5.453125 -12.035156 C 5.898438 -11.578125 6.726562 -8.863281 7.046875 -6.433594 Z M 3.425781 -6.667969" transform="translate(175.602 285.406)"/></g></g></g><g fill="#7B3911"><g><g><path d="M 10.148438 -13.945312 C 9.996094 -14.75 10.058594 -15.289062 10.707031 -16.011719 C 10.917969 -16.238281 10.777344 -16.488281 10.554688 -16.445312 L 7.480469 -15.867188 C 6.699219 -15.722656 6.332031 -15.355469 6.183594 -14.402344 L 5.269531 -8.578125 L 2.28125 -13.695312 C 1.832031 -14.488281 1.28125 -14.707031 0.347656 -14.53125 L -2.394531 -14.019531 C -2.617188 -13.976562 -2.65625 -13.691406 -2.402344 -13.554688 C -1.511719 -13.121094 -1.386719 -13.191406 -1.234375 -12.367188 L 0.210938 -4.65625 C 0.367188 -3.828125 0.226562 -3.847656 -0.445312 -3.125 C -0.636719 -2.902344 -0.492188 -2.628906 -0.269531 -2.671875 L 2.027344 -3.101562 C 2.25 -3.144531 2.285156 -3.449219 2.003906 -3.582031 C 1.140625 -4.019531 0.992188 -3.945312 0.835938 -4.773438 L -0.574219 -12.304688 L 4.1875 -4.128906 C 4.605469 -3.378906 5.09375 -3.46875 5.238281 -4.304688 L 5.777344 -7.703125 L 6.699219 -13.625 C 7.160156 -12.53125 7.464844 -11.019531 7.648438 -10.039062 C 7.941406 -8.480469 8.402344 -5.519531 7.695312 -4.742188 C 7.507812 -4.519531 7.554688 -4.136719 8.046875 -4.230469 L 12.683594 -5.097656 C 12.90625 -5.140625 12.941406 -5.445312 12.660156 -5.578125 C 11.792969 -6.015625 11.546875 -6.476562 11.390625 -7.304688 Z M 10.148438 -13.945312" transform="translate(196.32 285.796)"/></g></g></g><g fill="#7B3911"><g><g><path d="M -0.46875 -15.464844 C -3.511719 -14.050781 -4.910156 -10.546875 -3.570312 -7.667969 C -2.21875 -4.769531 1.359375 -3.585938 4.402344 -5 C 7.464844 -6.425781 8.863281 -9.929688 7.515625 -12.828125 C 6.175781 -15.707031 2.59375 -16.890625 -0.46875 -15.464844 Z M 4.039062 -5.78125 C 2.847656 -5.226562 0.929688 -6.761719 -0.21875 -9.230469 C -1.355469 -11.675781 -1.296875 -14.128906 -0.105469 -14.683594 C 1.109375 -15.25 3.023438 -13.714844 4.160156 -11.269531 C 5.308594 -8.800781 5.25 -6.347656 4.039062 -5.78125 Z M 4.039062 -5.78125" transform="translate(218.092 280.563)"/></g></g></g><g fill="#7B3911"><g><g><path d="M 6.535156 -9.316406 C 4.234375 -9.082031 2.40625 -10.441406 0.707031 -10.28125 C 1.714844 -11.601562 1.820312 -13.335938 0.875 -14.527344 C -0.277344 -15.984375 -2.589844 -16.089844 -4.261719 -14.765625 L -8.652344 -11.285156 C -8.832031 -11.144531 -8.734375 -10.875 -8.441406 -10.875 C -7.453125 -10.90625 -7.023438 -10.582031 -6.515625 -9.941406 L -2.320312 -4.644531 C -1.796875 -3.984375 -1.59375 -3.511719 -1.851562 -2.554688 C -1.917969 -2.273438 -1.660156 -2.097656 -1.484375 -2.238281 L 2.089844 -5.070312 C 2.460938 -5.367188 2.222656 -5.667969 1.914062 -5.65625 C 1.089844 -5.636719 -0.222656 -7.144531 -1.226562 -8.375 C -1.105469 -8.554688 -0.976562 -8.71875 -0.851562 -8.816406 C 0.109375 -9.578125 1.164062 -8.648438 1.945312 -8.023438 C 2.644531 -7.507812 3.007812 -7.160156 2.914062 -6.332031 C 2.882812 -6.074219 3.136719 -5.902344 3.332031 -6.054688 L 6.78125 -8.789062 C 7.15625 -9.082031 6.878906 -9.359375 6.535156 -9.316406 Z M -1.667969 -12.511719 C -0.820312 -11.445312 -0.867188 -9.933594 -1.730469 -9.015625 L -1.929688 -9.265625 C -2.816406 -10.382812 -4.429688 -12.347656 -4.574219 -13.476562 C -3.570312 -13.78125 -2.398438 -13.4375 -1.667969 -12.511719 Z M -1.667969 -12.511719" transform="translate(236.504 270.863)"/></g></g></g><g fill="#7B3911"><g><g><path d="M 4.261719 -10.550781 C 2.074219 -9.804688 -0.015625 -10.714844 -1.632812 -10.175781 C -0.949219 -11.691406 -1.238281 -13.402344 -2.425781 -14.347656 C -3.882812 -15.507812 -6.15625 -15.089844 -7.488281 -13.421875 L -10.980469 -9.039062 C -11.121094 -8.863281 -10.964844 -8.621094 -10.679688 -8.6875 C -9.726562 -8.941406 -9.230469 -8.722656 -8.59375 -8.210938 L -3.308594 -4 C -2.652344 -3.476562 -2.347656 -3.058594 -2.378906 -2.070312 C -2.378906 -1.78125 -2.09375 -1.667969 -1.953125 -1.84375 L 0.890625 -5.410156 C 1.1875 -5.78125 0.886719 -6.023438 0.589844 -5.941406 C -0.210938 -5.738281 -1.828125 -6.910156 -3.085938 -7.882812 C -3.011719 -8.085938 -2.917969 -8.273438 -2.820312 -8.398438 C -2.058594 -9.355469 -0.820312 -8.6875 0.0859375 -8.257812 C 0.882812 -7.910156 1.316406 -7.652344 1.40625 -6.824219 C 1.4375 -6.570312 1.722656 -6.457031 1.878906 -6.652344 L 4.621094 -10.09375 C 4.917969 -10.464844 4.589844 -10.667969 4.261719 -10.550781 Z M -4.449219 -11.8125 C -3.382812 -10.964844 -3.085938 -9.480469 -3.722656 -8.390625 L -3.972656 -8.589844 C -5.089844 -9.480469 -7.105469 -11.027344 -7.5 -12.097656 C -6.589844 -12.617188 -5.371094 -12.546875 -4.449219 -11.8125 Z M -4.449219 -11.8125" transform="translate(251.352 257.91)"/></g></g></g></svg>